<svg width="11" height="45" viewBox="0 0 11 45" fill="none" xmlns="http://www.w3.org/2000/svg">
<path d="M0.807861 15.2588H6.13787C7.14733 15.2588 8.11545 15.6584 8.82925 16.3696C9.54305 17.0808 9.94405 18.0455 9.94405 19.0513V44.0607H4.61405C3.60459 44.0607 2.63647 43.6611 1.92267 42.9499C1.20887 42.2386 0.807861 41.274 0.807861 40.2681V15.2588Z" fill="#022F5E"/>
<path d="M9.17209 1.53912C8.67527 1.04112 8.08268 0.648177 7.42981 0.383828C6.77694 0.11948 6.07723 -0.0108308 5.37262 0.000704034C4.66907 -0.0103106 3.97052 0.120264 3.31882 0.384609C2.66711 0.648953 2.07565 1.04163 1.57985 1.53912C1.06121 2.03995 0.653046 2.64303 0.381427 3.30985C0.109809 3.97667 -0.0193036 4.6926 0.00233192 5.41193C-0.0150873 6.12276 0.116174 6.82943 0.387764 7.48697C0.659354 8.14451 1.06533 8.73853 1.57985 9.23122C2.07565 9.72871 2.66711 10.1214 3.31882 10.3857C3.97052 10.6501 4.66907 10.7807 5.37262 10.7696C6.07723 10.7812 6.77694 10.6509 7.42981 10.3865C8.08268 10.1222 8.67527 9.72922 9.17209 9.23122C9.6854 8.73794 10.0901 8.14367 10.3606 7.48616C10.631 6.82865 10.7612 6.12228 10.7429 5.41193C10.7654 4.69309 10.6373 3.97746 10.3669 3.31066C10.0964 2.64387 9.68953 2.04054 9.17209 1.53912V1.53912ZM7.01726 7.04399C6.80237 7.25997 6.54596 7.43054 6.26336 7.54547C5.98077 7.6604 5.67781 7.71733 5.37262 7.71287C5.06849 7.71681 4.76669 7.65961 4.48526 7.54469C4.20383 7.42976 3.94855 7.25947 3.73468 7.04399C3.51517 6.83051 3.34225 6.57419 3.22674 6.29106C3.11123 6.00792 3.05562 5.70408 3.06339 5.39855C3.05713 5.09278 3.11228 4.78885 3.2256 4.50463C3.33893 4.22041 3.50814 3.96164 3.72329 3.74352C3.93844 3.52541 4.19518 3.35235 4.47842 3.23454C4.76166 3.11672 5.06569 3.05652 5.37262 3.05748C5.68067 3.05473 5.98615 3.1136 6.27095 3.23062C6.55576 3.34763 6.8141 3.52041 7.03068 3.73871C7.24727 3.957 7.41768 4.21639 7.53183 4.5015C7.64599 4.78661 7.70156 5.09165 7.69526 5.39855C7.70216 5.70457 7.6455 6.0087 7.52882 6.29186C7.41215 6.57502 7.23798 6.83109 7.01726 7.04399V7.04399Z" fill="#022F5E"/>
</svg>
