<svg width="157" height="46" viewBox="0 0 157 46" fill="none" xmlns="http://www.w3.org/2000/svg">
<path d="M0.807861 15.5049H6.13787C7.14733 15.5049 8.11545 15.9045 8.82925 16.6157C9.54305 17.3269 9.94405 18.2916 9.94405 19.2974V44.3068H4.61405C3.60459 44.3068 2.63647 43.9072 1.92267 43.196C1.20887 42.4847 0.807861 41.5201 0.807861 40.5142V15.5049Z" fill="white"/>
<path d="M15.1331 15.5044H20.7517C21.6864 15.5044 22.5828 15.8744 23.2437 16.5329C23.9047 17.1915 24.276 18.0847 24.276 19.016V19.016C25.2922 17.8446 26.4913 16.844 27.8271 16.0529C29.4641 15.139 31.3222 14.6924 33.1973 14.7619C35.2012 14.7031 37.184 15.1837 38.9368 16.1532C40.4957 17.0455 41.7209 18.4189 42.4275 20.0661C42.9461 19.3875 43.5042 18.7398 44.099 18.1264C45.4101 16.7752 47.0462 15.7806 48.8517 15.2368C49.9404 14.9137 51.0723 14.7581 52.2081 14.7753C55.2961 14.7753 57.7351 15.627 59.5251 17.3304C61.3152 19.0338 62.2103 21.3415 62.2103 24.2533V44.3197H53.0338V27.3235C53.078 26.655 52.9886 25.9845 52.7708 25.3507C52.553 24.7169 52.2112 24.1325 51.7651 23.6313C51.314 23.1915 50.7762 22.8497 50.1858 22.6275C49.5953 22.4053 48.9651 22.3075 48.3348 22.3403C47.6421 22.332 46.9561 22.4764 46.3259 22.7632C45.6958 23.0499 45.137 23.472 44.6897 23.9991C43.7052 25.1095 43.2107 26.7304 43.2062 28.8619V44.3063H37.8359C36.8265 44.3063 35.8583 43.9067 35.1445 43.1955C34.4307 42.4842 34.0297 41.5196 34.0297 40.5137V27.3235C34.0733 26.6556 33.9843 25.9857 33.7677 25.3521C33.5512 24.7186 33.2114 24.1338 32.7677 23.6313C32.3389 23.2106 31.8299 22.8796 31.2708 22.6579C30.7117 22.4362 30.1136 22.3282 29.512 22.3403C28.7811 22.3175 28.0542 22.4569 27.384 22.7483C25.3299 23.6714 24.2737 25.6067 24.2155 28.5542V44.3063H15.1331V15.5044Z" fill="white"/>
<path d="M76.3343 31.1363V44.3065H67.1914V0H72.5617C73.5712 0 74.5393 0.39957 75.2531 1.11081C75.9669 1.82205 76.3679 2.78669 76.3679 3.79254V26.8889L84.7052 15.518H95.2041L84.5844 28.4273L97.4932 44.3065H86.8332L76.3343 31.1363Z" fill="white"/>
<path d="M127.406 15.5042H133.152C134.052 15.506 134.915 15.8631 135.552 16.4975C136.188 17.1318 136.547 17.9916 136.549 18.8887C137.57 17.7711 138.756 16.8148 140.066 16.0527C141.75 15.1416 143.65 14.7045 145.564 14.7885C147.038 14.7668 148.504 15.0162 149.887 15.5243C151.109 15.9843 152.223 16.6876 153.163 17.5911C154.076 18.4812 154.792 19.5522 155.264 20.7348C155.765 22.0135 156.015 23.3757 156.003 24.7481V44.3061H150.666C149.656 44.3061 148.688 43.9065 147.974 43.1953C147.261 42.484 146.86 41.5194 146.86 40.5135V27.3233C146.904 26.6526 146.812 25.98 146.589 25.3456C146.367 24.7112 146.018 24.128 145.564 23.6311C145.096 23.1892 144.543 22.8468 143.939 22.6249C143.334 22.403 142.69 22.3061 142.047 22.3401C141.331 22.3237 140.62 22.4576 139.959 22.733C139.299 23.0084 138.704 23.4192 138.213 23.9387C137.189 25.0045 136.634 26.5429 136.549 28.554V44.3061H127.406V15.5042Z" fill="white"/>
<path d="M9.17209 1.78522C8.67527 1.28722 8.08268 0.894271 7.42981 0.629922C6.77694 0.365574 6.07723 0.235263 5.37262 0.246798C4.66907 0.235783 3.97052 0.366358 3.31882 0.630702C2.66711 0.895047 2.07565 1.28772 1.57985 1.78522C1.06121 2.28605 0.653046 2.88912 0.381427 3.55594C0.109809 4.22277 -0.0193036 4.93869 0.00233192 5.65802C-0.0150873 6.36886 0.116174 7.07553 0.387764 7.73307C0.659354 8.39061 1.06533 8.98462 1.57985 9.47731C2.07565 9.97481 2.66711 10.3675 3.31882 10.6318C3.97052 10.8962 4.66907 11.0267 5.37262 11.0157C6.07723 11.0273 6.77694 10.897 7.42981 10.6326C8.08268 10.3683 8.67527 9.97532 9.17209 9.47731C9.6854 8.98404 10.0901 8.38976 10.3606 7.73225C10.631 7.07474 10.7612 6.36837 10.7429 5.65802C10.7654 4.93918 10.6373 4.22355 10.3669 3.55676C10.0964 2.88996 9.68953 2.28663 9.17209 1.78522V1.78522ZM7.01726 7.29008C6.80237 7.50607 6.54596 7.67663 6.26336 7.79156C5.98077 7.90649 5.67781 7.96343 5.37262 7.95896C5.06849 7.96291 4.76669 7.90571 4.48526 7.79078C4.20383 7.67586 3.94855 7.50556 3.73468 7.29008C3.51517 7.07661 3.34225 6.82028 3.22674 6.53715C3.11123 6.25402 3.05562 5.95018 3.06339 5.64464C3.05713 5.33888 3.11228 5.03495 3.2256 4.75073C3.33893 4.46651 3.50814 4.20773 3.72329 3.98962C3.93844 3.7715 4.19518 3.59845 4.47842 3.48063C4.76166 3.36281 5.06569 3.30261 5.37262 3.30357C5.68067 3.30082 5.98615 3.3597 6.27095 3.47671C6.55576 3.59373 6.8141 3.7665 7.03068 3.9848C7.24727 4.2031 7.41768 4.46248 7.53183 4.7476C7.64599 5.03271 7.70156 5.33774 7.69526 5.64464C7.70216 5.95066 7.6455 6.2548 7.52882 6.53796C7.41215 6.82112 7.23798 7.07718 7.01726 7.29008V7.29008Z" fill="white"/>
<path d="M109.375 45.2294C107.205 45.2626 105.051 44.8553 103.045 44.0321C101.239 43.2838 99.6011 42.1857 98.225 40.8014C96.8772 39.4109 95.8367 37.7544 95.1706 35.9387C94.4604 34.0113 94.1056 31.9719 94.1234 29.9188C94.1063 27.8832 94.4612 25.8614 95.1706 23.9524C95.848 22.1422 96.8871 20.4879 98.225 19.0897C99.591 17.6783 101.231 16.5587 103.045 15.7988C107.111 14.1934 111.639 14.1934 115.705 15.7988C117.519 16.5587 119.159 17.6783 120.525 19.0897C121.863 20.4879 122.902 22.1422 123.579 23.9524C124.289 25.8614 124.644 27.8832 124.627 29.9188C124.644 31.9719 124.29 34.0113 123.579 35.9387C122.913 37.7544 121.873 39.4109 120.525 40.8014C119.152 42.1977 117.514 43.3073 115.705 44.0656C113.696 44.8773 111.542 45.2732 109.375 45.2294ZM109.375 37.4771C110.348 37.4972 111.312 37.2863 112.188 36.8617C112.964 36.4612 113.65 35.9057 114.202 35.2297C114.783 34.5242 115.213 33.7068 115.464 32.8284C116.001 30.9165 116.001 28.8943 115.464 26.9824C115.22 26.1067 114.8 25.2896 114.228 24.5811C113.676 23.9072 112.991 23.3539 112.215 22.9558C111.333 22.5503 110.373 22.3403 109.402 22.3403C108.431 22.3403 107.471 22.5503 106.589 22.9558C105.813 23.3539 105.127 23.9072 104.575 24.5811C104.001 25.2928 103.571 26.1081 103.307 26.9824C102.734 28.8893 102.734 30.9215 103.307 32.8284C103.569 33.7033 104 34.5189 104.575 35.2297C105.127 35.9057 105.813 36.4612 106.589 36.8617C107.458 37.276 108.412 37.4799 109.375 37.457V37.4771Z" fill="white"/>
</svg>
